<svg width="27" height="26" viewBox="0 0 27 26" fill="none" xmlns="http://www.w3.org/2000/svg">
<path d="M26.7358 17.5681L26.7358 7.9855C26.7358 3.5759 23.1288 -1.57667e-07 18.6809 -3.52092e-07L9.01499 -7.74603e-07C4.56705 -9.69028e-07 0.960054 3.5759 0.960054 7.98549L0.960054 17.5681C0.960053 21.9777 4.56705 25.5536 9.01499 25.5536L18.6809 25.5536C23.1288 25.5536 26.7358 21.9777 26.7358 17.5681ZM9.01499 23.1579C5.90578 23.1579 3.37653 20.6505 3.37653 17.5681L3.37653 7.98549C3.37653 4.90309 5.90578 2.39565 9.01499 2.39565L18.6809 2.39565C21.7901 2.39565 24.3194 4.90309 24.3194 7.9855L24.3194 17.5681C24.3194 20.6505 21.7901 23.1579 18.6809 23.1579L9.01499 23.1579Z" fill="#808084"/>
</svg>
