<svg width="14" height="18" viewBox="0 0 14 18" fill="none" xmlns="http://www.w3.org/2000/svg">
<path d="M7.08543 8.43966C8.12464 8.43966 9.02452 8.06692 9.75977 7.33152C10.495 6.59624 10.8678 5.69657 10.8678 4.65721C10.8678 3.6182 10.495 2.71842 9.75965 1.9829C9.02428 1.24773 8.12452 0.875 7.08543 0.875C6.0461 0.875 5.14646 1.24773 4.4112 1.98302C3.67594 2.7183 3.3031 3.61808 3.3031 4.65721C3.3031 5.69657 3.67594 6.59636 4.41132 7.33164C5.1467 8.0668 6.04646 8.43966 7.08543 8.43966Z" fill="white"/>
<path d="M13.6362 13.4936C13.6149 13.1873 13.5718 12.8533 13.5083 12.5005C13.4442 12.1451 13.3618 11.8091 13.263 11.502C13.161 11.1846 13.0223 10.8712 12.8508 10.5708C12.6729 10.259 12.4638 9.98757 12.2292 9.76418C11.9839 9.53048 11.6836 9.34258 11.3363 9.20552C10.9903 9.06919 10.6067 9.00012 10.1965 9.00012C10.0354 9.00012 9.87954 9.06595 9.57861 9.26104C9.39341 9.38131 9.17678 9.5204 8.93498 9.67425C8.72823 9.80543 8.44814 9.92833 8.10218 10.0396C7.76465 10.1484 7.42194 10.2035 7.08369 10.2035C6.74544 10.2035 6.40285 10.1484 6.06496 10.0396C5.71936 9.92845 5.43927 9.80555 5.23276 9.67437C4.99325 9.52196 4.7765 9.38287 4.58853 9.26092C4.28796 9.06583 4.13202 9 3.97091 9C3.56052 9 3.17712 9.06919 2.83116 9.20564C2.48411 9.34246 2.18367 9.53036 1.93814 9.7643C1.70369 9.98781 1.49453 10.2592 1.31679 10.5708C1.14544 10.8712 1.00672 11.1845 0.904602 11.5021C0.80598 11.8092 0.723494 12.1451 0.659432 12.5005C0.595973 12.8528 0.552863 13.187 0.531549 13.4939C0.510597 13.7947 0.5 14.1068 0.5 14.422C0.5 15.2424 0.761907 15.9066 1.27838 16.3964C1.78846 16.8798 2.4634 17.125 3.28417 17.125H10.8839C11.7047 17.125 12.3794 16.8799 12.8896 16.3964C13.4062 15.907 13.6681 15.2427 13.6681 14.4219C13.668 14.1052 13.6573 13.7929 13.6362 13.4936Z" fill="white"/>
</svg>
