<svg width="26" height="26" viewBox="0 0 26 26" fill="none" xmlns="http://www.w3.org/2000/svg">
<path d="M18.9634 0.530518H6.34797C2.8526 0.530518 6.10352e-05 3.35804 6.10352e-05 6.82274V19.3475C6.10352e-05 22.7923 2.8526 25.6198 6.34797 25.6198H18.9835C22.4789 25.6198 25.3314 22.7923 25.3314 19.3275V6.82274C25.3113 3.35804 22.4588 0.530518 18.9634 0.530518ZM19.9478 9.5507C19.0639 14.4491 14.1422 18.5908 12.6557 19.5267C11.1692 20.4825 9.82325 19.1483 9.32104 18.1527C8.75857 17.0177 7.07115 10.8052 6.62921 10.3074C6.18727 9.78965 4.86144 10.8251 4.86144 10.8251L4.21861 9.98877C4.21861 9.98877 6.91044 6.82274 8.93937 6.44441C11.129 6.00635 11.129 9.71 11.6513 11.7609C12.1535 13.7522 12.495 14.8871 12.9369 14.8871C13.3789 14.8871 14.2226 13.7721 15.1467 12.0795C16.0707 10.387 15.1065 8.87369 13.2985 9.94895C14.0217 5.68775 20.8317 4.65232 19.9478 9.5507Z" fill="#808084"/>
</svg>
