<svg width="126" height="30" viewBox="0 0 126 30" fill="none" xmlns="http://www.w3.org/2000/svg">
<path fill-rule="evenodd" clip-rule="evenodd" d="M25.2004 29.4974H18.6472V17.6825H6.63257V29.4974H0.0960693V0.489239H6.63257V12.0612H18.6472V0.489239H25.2004V29.4974ZM44.0976 30C39.9441 30 36.5593 28.6454 33.9434 25.9463C31.3242 23.2405 30.0195 19.7193 30.0195 15.3761C30.0195 10.7899 31.3475 7.08232 34.0033 4.25006C36.6625 1.42112 40.1771 0 44.5602 0C48.7038 0 52.0519 1.35789 54.6079 4.06701C57.164 6.77945 58.442 10.3572 58.442 14.7903C58.442 19.3466 57.114 23.0275 54.4648 25.8165C51.8189 28.6055 48.361 30 44.0976 30ZM44.3838 5.62458C42.0907 5.62458 40.2669 6.48325 38.9223 8.20723C37.5744 9.92789 36.8988 12.1977 36.8988 15.03C36.8988 17.9022 37.5744 20.1753 38.9223 21.8527C40.2669 23.5234 42.0342 24.3588 44.2174 24.3588C46.4739 24.3588 48.2578 23.5434 49.5824 21.9226C50.9004 20.2918 51.5627 18.0419 51.5627 15.1564C51.5627 12.1444 50.9203 9.80475 49.6457 8.13401C48.361 6.45995 46.6071 5.62458 44.3838 5.62458ZM81.972 5.8043H73.6949V29.4974H67.1418V5.8043H58.9112V0.489239H81.972V5.8043ZM103.276 29.4974H85.8726V0.489239H102.603V5.8043H92.4125V12.2609H101.901V17.5594H92.4125V24.1924H103.276V29.4974ZM125.198 29.4974H107.922V0.489239H114.462V24.1924H125.198V29.4974Z" fill="#B2B3B3"/>
</svg>
