<svg width="119" height="30" viewBox="0 0 119 30" fill="none" xmlns="http://www.w3.org/2000/svg">
<path fill-rule="evenodd" clip-rule="evenodd" d="M24.3388 29.4974H16.8338L12.3242 22.0324C11.988 21.4666 11.6619 20.9607 11.3523 20.5114C11.0395 20.0721 10.73 19.6894 10.4138 19.3732C10.0943 19.057 9.76481 18.8141 9.41868 18.641C9.07255 18.4746 8.6998 18.3947 8.30042 18.3947H6.53983V29.4974H0V0.489239H10.3572C17.3996 0.489239 20.9208 3.11848 20.9208 8.37364C20.9208 9.38873 20.7644 10.3206 20.4515 11.1759C20.142 12.0346 19.706 12.8067 19.1402 13.4957C18.5744 14.1813 17.8922 14.777 17.0901 15.2729C16.2813 15.7755 15.3927 16.1615 14.4043 16.4444V16.5276C14.8402 16.6674 15.2529 16.8804 15.6623 17.1866C16.0683 17.4895 16.4544 17.8422 16.8338 18.2483C17.2132 18.6543 17.5727 19.0903 17.9188 19.5529C18.2649 20.0155 18.5744 20.4715 18.8573 20.9208L24.3388 29.4974ZM6.53983 5.38496V13.4557H9.37209C10.7699 13.4557 11.8982 13.0464 12.7468 12.241C13.6088 11.4189 14.0448 10.3972 14.0448 9.18904C14.0448 6.64633 12.5272 5.38496 9.48857 5.38496H6.53983ZM44.4475 29.4974H27.0446V0.489239H43.7786V5.8043H33.5878V12.2609H43.073V17.5594H33.5878V24.1924H44.4475V29.4974ZM72.9099 27.5571C70.0777 29.1846 66.5565 30 62.343 30C57.6836 30 54.0027 28.7087 51.3102 26.126C48.6244 23.5434 47.2765 19.9889 47.2765 15.4593C47.2765 10.903 48.7475 7.18549 51.6896 4.31329C54.625 1.43444 58.5389 0 63.4213 0C66.4932 0 69.209 0.426004 71.5487 1.27468V7.40848C69.3122 6.11049 66.5764 5.46816 63.3381 5.46816C60.6257 5.46816 58.4225 6.34347 56.7184 8.10406C55.0044 9.86465 54.1558 12.2143 54.1558 15.1564C54.1558 18.1318 54.9212 20.4382 56.4455 22.0723C57.9798 23.7031 60.0466 24.5185 62.6492 24.5185C64.2168 24.5185 65.4582 24.2955 66.3701 23.8562V18.185H60.5691V12.9665H72.9099V27.5571ZM85.091 29.4974H78.5511V0.489239H85.091V29.4974ZM103.938 30C99.7848 30 96.4 28.6454 93.7841 25.9463C91.1649 23.2405 89.8602 19.7193 89.8602 15.3761C89.8602 10.7899 91.1848 7.08232 93.844 4.25006C96.5032 1.42112 100.018 0 104.401 0C108.544 0 111.893 1.35789 114.449 4.06701C117.005 6.77945 118.279 10.3572 118.279 14.7903C118.283 19.3466 116.955 23.0275 114.306 25.8165C111.66 28.6055 108.198 30 103.938 30ZM104.225 5.62458C101.931 5.62458 100.108 6.48325 98.763 8.20723C97.4151 9.92789 96.7362 12.1977 96.7362 15.03C96.7362 17.9022 97.4151 20.1753 98.763 21.8527C100.108 23.5234 101.875 24.3588 104.058 24.3588C106.315 24.3588 108.095 23.5434 109.423 21.9226C110.741 20.2918 111.403 18.0419 111.403 15.1564C111.403 12.1444 110.761 9.80475 109.483 8.13401C108.198 6.45995 106.448 5.62458 104.225 5.62458Z" fill="#E31E24"/>
</svg>
